# MagicaVoxel @ Ephtracy

# group
o 

# material
mtllib untitled.mtl
usemtl palette

# normals
vn -1 0 0
vn 1 0 0
vn 0 0 1
vn 0 0 -1
vn 0 -1 0
vn 0 1 0

# texcoords
vt 0.0917969 0.5
vt 0.958984 0.5
vt 0.994141 0.5

# verts
v -0.4 0.4 0.4
v -0.4 0.4 0.2
v -0.4 0.5 0.2
v -0.4 0.5 -1.19209e-07
v -0.4 0.6 0.4
v -0.4 0.6 -1.19209e-07
v -0.3 0 0.4
v -0.3 0 0.2
v -0.3 0.1 0.4
v -0.3 0.1 0.3
v -0.3 0.3 0.5
v -0.3 0.3 0.3
v -0.3 0.3 0.2
v -0.3 0.3 -0.1
v -0.3 0.4 0.4
v -0.3 0.4 0.2
v -0.3 0.4 -0.1
v -0.3 0.4 -0.2
v -0.3 0.5 0.2
v -0.3 0.5 -1.19209e-07
v -0.3 0.5 -0.2
v -0.3 0.5 -0.3
v -0.3 0.6 0.4
v -0.3 0.6 -1.19209e-07
v -0.3 0.7 0.5
v -0.3 0.7 -0.3
v -0.2 0.7 0.8
v -0.2 0.7 0.5
v -0.2 0.7 0.3
v -0.2 1 0.7
v -0.2 1 0.6
v -0.2 1.1 0.7
v -0.2 1.1 0.6
v -0.2 1.2 0.8
v -0.2 1.2 0.3
v 0 0.9 1
v 0 0.9 0.8
v 0 1 1
v 0 1 0.8
v 0.3 0 0.4
v 0.3 0 0.2
v 0.3 0.1 0.4
v 0.3 0.1 0.3
v 0.3 0.3 0.3
v 0.3 0.3 0.2
v 0.3 0.4 0.4
v 0.3 0.4 0.3
v 0.3 0.5 0.4
v 0.3 0.5 0.3
v -0.2 0 0.4
v -0.2 0 0.2
v -0.2 0.1 0.4
v -0.2 0.1 0.3
v -0.2 0.3 0.3
v -0.2 0.3 0.2
v -0.1 0.4 0.4
v -0.1 0.4 0.3
v -0.1 0.5 0.4
v -0.1 0.5 0.3
v 0.1 0.9 1
v 0.1 0.9 0.8
v 0.1 1 1
v 0.1 1 0.8
v 0.3 0.7 0.8
v 0.3 0.7 0.5
v 0.3 0.7 0.3
v 0.3 1 0.7
v 0.3 1 0.6
v 0.3 1.1 0.7
v 0.3 1.1 0.6
v 0.3 1.2 0.8
v 0.3 1.2 0.3
v 0.4 0 0.4
v 0.4 0 0.2
v 0.4 0.1 0.4
v 0.4 0.1 0.3
v 0.4 0.3 0.5
v 0.4 0.3 0.3
v 0.4 0.3 0.2
v 0.4 0.3 -0.1
v 0.4 0.4 0.4
v 0.4 0.4 0.2
v 0.4 0.4 -0.1
v 0.4 0.4 -0.2
v 0.4 0.5 0.2
v 0.4 0.5 -1.19209e-07
v 0.4 0.5 -0.2
v 0.4 0.5 -0.3
v 0.4 0.6 0.4
v 0.4 0.6 -1.19209e-07
v 0.4 0.7 0.5
v 0.4 0.7 -0.3
v 0.5 0.4 0.4
v 0.5 0.4 0.2
v 0.5 0.5 0.2
v 0.5 0.5 -1.19209e-07
v 0.5 0.6 0.4
v 0.5 0.6 -1.19209e-07
v 0 0.9 1
v 0 1 1
v 0.1 0.9 1
v 0.1 1 1
v -0.2 0.7 0.8
v -0.2 1.2 0.8
v 0 0.9 0.8
v 0 1 0.8
v 0.1 0.9 0.8
v 0.1 1 0.8
v 0.3 0.7 0.8
v 0.3 1.2 0.8
v -0.3 0.3 0.5
v -0.3 0.7 0.5
v -0.2 0.7 0.5
v 0.3 0.7 0.5
v 0.4 0.3 0.5
v 0.4 0.7 0.5
v -0.4 0.4 0.4
v -0.4 0.6 0.4
v -0.3 0 0.4
v -0.3 0.1 0.4
v -0.3 0.4 0.4
v -0.3 0.6 0.4
v -0.2 0 0.4
v -0.2 0.1 0.4
v 0.3 0 0.4
v 0.3 0.1 0.4
v 0.4 0 0.4
v 0.4 0.1 0.4
v 0.4 0.4 0.4
v 0.4 0.6 0.4
v 0.5 0.4 0.4
v 0.5 0.6 0.4
v -0.3 0.1 0.3
v -0.3 0.3 0.3
v -0.2 0.1 0.3
v -0.2 0.3 0.3
v -0.1 0.4 0.3
v -0.1 0.5 0.3
v 0.3 0.1 0.3
v 0.3 0.3 0.3
v 0.3 0.4 0.3
v 0.3 0.5 0.3
v 0.4 0.1 0.3
v 0.4 0.3 0.3
v -0.1 0.4 0.4
v -0.1 0.5 0.4
v 0.3 0.4 0.4
v 0.3 0.5 0.4
v -0.2 0.7 0.3
v -0.2 1.2 0.3
v 0.3 0.7 0.3
v 0.3 1.2 0.3
v -0.4 0.4 0.2
v -0.4 0.5 0.2
v -0.3 0 0.2
v -0.3 0.3 0.2
v -0.3 0.4 0.2
v -0.3 0.5 0.2
v -0.2 0 0.2
v -0.2 0.3 0.2
v 0.3 0 0.2
v 0.3 0.3 0.2
v 0.4 0 0.2
v 0.4 0.3 0.2
v 0.4 0.4 0.2
v 0.4 0.5 0.2
v 0.5 0.4 0.2
v 0.5 0.5 0.2
v -0.4 0.5 -1.19209e-07
v -0.4 0.6 -1.19209e-07
v -0.3 0.5 -1.19209e-07
v -0.3 0.6 -1.19209e-07
v 0.4 0.5 -1.19209e-07
v 0.4 0.6 -1.19209e-07
v 0.5 0.5 -1.19209e-07
v 0.5 0.6 -1.19209e-07
v -0.3 0.3 -0.1
v -0.3 0.4 -0.1
v 0.4 0.3 -0.1
v 0.4 0.4 -0.1
v -0.3 0.4 -0.2
v -0.3 0.5 -0.2
v 0.4 0.4 -0.2
v 0.4 0.5 -0.2
v -0.3 0.5 -0.3
v -0.3 0.7 -0.3
v 0.4 0.5 -0.3
v 0.4 0.7 -0.3
v -0.3 0 0.4
v -0.2 0 0.4
v 0.3 0 0.4
v 0.4 0 0.4
v -0.3 0 0.2
v -0.2 0 0.2
v 0.3 0 0.2
v 0.4 0 0.2
v -0.3 0.3 0.5
v 0.4 0.3 0.5
v -0.3 0.3 0.3
v -0.2 0.3 0.3
v 0.3 0.3 0.3
v 0.4 0.3 0.3
v -0.3 0.3 0.2
v -0.2 0.3 0.2
v 0.3 0.3 0.2
v 0.4 0.3 0.2
v -0.3 0.3 -0.1
v 0.4 0.3 -0.1
v -0.4 0.4 0.4
v -0.3 0.4 0.4
v 0.4 0.4 0.4
v 0.5 0.4 0.4
v -0.4 0.4 0.2
v -0.3 0.4 0.2
v 0.4 0.4 0.2
v 0.5 0.4 0.2
v -0.3 0.4 -0.1
v 0.4 0.4 -0.1
v -0.3 0.4 -0.2
v 0.4 0.4 -0.2
v -0.1 0.5 0.4
v 0.3 0.5 0.4
v -0.1 0.5 0.3
v 0.3 0.5 0.3
v -0.4 0.5 0.2
v -0.3 0.5 0.2
v 0.4 0.5 0.2
v 0.5 0.5 0.2
v -0.4 0.5 -1.19209e-07
v -0.3 0.5 -1.19209e-07
v 0.4 0.5 -1.19209e-07
v 0.5 0.5 -1.19209e-07
v -0.3 0.5 -0.2
v 0.4 0.5 -0.2
v -0.3 0.5 -0.3
v 0.4 0.5 -0.3
v -0.2 0.7 0.8
v 0.3 0.7 0.8
v -0.2 0.7 0.5
v 0.3 0.7 0.5
v 0 0.9 1
v 0.1 0.9 1
v 0 0.9 0.8
v 0.1 0.9 0.8
v -0.3 0.1 0.4
v -0.2 0.1 0.4
v 0.3 0.1 0.4
v 0.4 0.1 0.4
v -0.3 0.1 0.3
v -0.2 0.1 0.3
v 0.3 0.1 0.3
v 0.4 0.1 0.3
v -0.1 0.4 0.4
v 0.3 0.4 0.4
v -0.1 0.4 0.3
v 0.3 0.4 0.3
v -0.4 0.6 0.4
v -0.3 0.6 0.4
v 0.4 0.6 0.4
v 0.5 0.6 0.4
v -0.4 0.6 -1.19209e-07
v -0.3 0.6 -1.19209e-07
v 0.4 0.6 -1.19209e-07
v 0.5 0.6 -1.19209e-07
v -0.3 0.7 0.5
v -0.2 0.7 0.5
v 0.3 0.7 0.5
v 0.4 0.7 0.5
v -0.2 0.7 0.3
v 0.3 0.7 0.3
v -0.3 0.7 -0.3
v 0.4 0.7 -0.3
v 0 1 1
v 0.1 1 1
v 0 1 0.8
v 0.1 1 0.8
v -0.2 1.2 0.8
v 0.3 1.2 0.8
v -0.2 1.2 0.3
v 0.3 1.2 0.3

# faces
f 3/2/1 2/2/1 1/2/1
f 5/2/1 3/2/1 1/2/1
f 5/2/1 4/2/1 3/2/1
f 6/2/1 4/2/1 5/2/1
f 9/1/1 8/1/1 7/1/1
f 10/1/1 8/1/1 9/1/1
f 12/1/1 8/1/1 10/1/1
f 13/1/1 8/1/1 12/1/1
f 15/2/1 12/2/1 11/2/1
f 15/2/1 14/2/1 13/2/1
f 15/2/1 13/2/1 12/2/1
f 16/2/1 14/2/1 15/2/1
f 17/2/1 14/2/1 16/2/1
f 19/2/1 18/2/1 17/2/1
f 19/2/1 17/2/1 16/2/1
f 20/2/1 18/2/1 19/2/1
f 21/2/1 18/2/1 20/2/1
f 23/2/1 15/2/1 11/2/1
f 24/2/1 22/2/1 21/2/1
f 24/2/1 21/2/1 20/2/1
f 25/2/1 23/2/1 11/2/1
f 25/2/1 24/2/1 23/2/1
f 26/2/1 22/2/1 24/2/1
f 26/2/1 24/2/1 25/2/1
f 30/2/1 28/2/1 27/2/1
f 30/2/1 29/2/1 28/2/1
f 31/2/1 29/2/1 30/2/1
f 32/2/1 30/2/1 27/2/1
f 32/3/1 31/3/1 30/3/1
f 33/2/1 29/2/1 31/2/1
f 33/3/1 31/3/1 32/3/1
f 34/2/1 32/2/1 27/2/1
f 34/2/1 33/2/1 32/2/1
f 35/2/1 29/2/1 33/2/1
f 35/2/1 33/2/1 34/2/1
f 38/1/1 37/1/1 36/1/1
f 39/1/1 37/1/1 38/1/1
f 42/1/1 41/1/1 40/1/1
f 43/1/1 41/1/1 42/1/1
f 44/1/1 41/1/1 43/1/1
f 45/1/1 41/1/1 44/1/1
f 48/2/1 47/2/1 46/2/1
f 49/2/1 47/2/1 48/2/1
f 50/1/2 51/1/2 52/1/2
f 52/1/2 51/1/2 53/1/2
f 53/1/2 51/1/2 54/1/2
f 54/1/2 51/1/2 55/1/2
f 56/2/2 57/2/2 58/2/2
f 58/2/2 57/2/2 59/2/2
f 60/1/2 61/1/2 62/1/2
f 62/1/2 61/1/2 63/1/2
f 64/2/2 65/2/2 67/2/2
f 65/2/2 66/2/2 67/2/2
f 67/2/2 66/2/2 68/2/2
f 64/2/2 67/2/2 69/2/2
f 67/3/2 68/3/2 69/3/2
f 68/2/2 66/2/2 70/2/2
f 69/3/2 68/3/2 70/3/2
f 64/2/2 69/2/2 71/2/2
f 69/2/2 70/2/2 71/2/2
f 70/2/2 66/2/2 72/2/2
f 71/2/2 70/2/2 72/2/2
f 73/1/2 74/1/2 75/1/2
f 75/1/2 74/1/2 76/1/2
f 76/1/2 74/1/2 78/1/2
f 78/1/2 74/1/2 79/1/2
f 77/2/2 78/2/2 81/2/2
f 79/2/2 80/2/2 81/2/2
f 78/2/2 79/2/2 81/2/2
f 81/2/2 80/2/2 82/2/2
f 82/2/2 80/2/2 83/2/2
f 83/2/2 84/2/2 85/2/2
f 82/2/2 83/2/2 85/2/2
f 85/2/2 84/2/2 86/2/2
f 86/2/2 84/2/2 87/2/2
f 77/2/2 81/2/2 89/2/2
f 87/2/2 88/2/2 90/2/2
f 86/2/2 87/2/2 90/2/2
f 77/2/2 89/2/2 91/2/2
f 89/2/2 90/2/2 91/2/2
f 90/2/2 88/2/2 92/2/2
f 91/2/2 90/2/2 92/2/2
f 93/2/2 94/2/2 95/2/2
f 93/2/2 95/2/2 97/2/2
f 95/2/2 96/2/2 97/2/2
f 97/2/2 96/2/2 98/2/2
f 101/1/3 100/1/3 99/1/3
f 102/1/3 100/1/3 101/1/3
f 105/2/3 104/2/3 103/2/3
f 106/2/3 104/2/3 105/2/3
f 107/2/3 105/2/3 103/2/3
f 108/2/3 104/2/3 106/2/3
f 109/2/3 107/2/3 103/2/3
f 109/2/3 108/2/3 107/2/3
f 110/2/3 104/2/3 108/2/3
f 110/2/3 108/2/3 109/2/3
f 113/2/3 112/2/3 111/2/3
f 114/2/3 113/2/3 111/2/3
f 115/2/3 114/2/3 111/2/3
f 116/2/3 114/2/3 115/2/3
f 121/2/3 118/2/3 117/2/3
f 122/2/3 118/2/3 121/2/3
f 123/1/3 120/1/3 119/1/3
f 124/1/3 120/1/3 123/1/3
f 127/1/3 126/1/3 125/1/3
f 128/1/3 126/1/3 127/1/3
f 131/2/3 130/2/3 129/2/3
f 132/2/3 130/2/3 131/2/3
f 135/1/3 134/1/3 133/1/3
f 136/1/3 134/1/3 135/1/3
f 141/2/3 138/2/3 137/2/3
f 142/2/3 138/2/3 141/2/3
f 143/1/3 140/1/3 139/1/3
f 144/1/3 140/1/3 143/1/3
f 145/2/4 146/2/4 147/2/4
f 147/2/4 146/2/4 148/2/4
f 149/2/4 150/2/4 151/2/4
f 151/2/4 150/2/4 152/2/4
f 153/2/4 154/2/4 157/2/4
f 157/2/4 154/2/4 158/2/4
f 155/1/4 156/1/4 159/1/4
f 159/1/4 156/1/4 160/1/4
f 161/1/4 162/1/4 163/1/4
f 163/1/4 162/1/4 164/1/4
f 165/2/4 166/2/4 167/2/4
f 167/2/4 166/2/4 168/2/4
f 169/2/4 170/2/4 171/2/4
f 171/2/4 170/2/4 172/2/4
f 173/2/4 174/2/4 175/2/4
f 175/2/4 174/2/4 176/2/4
f 177/2/4 178/2/4 179/2/4
f 179/2/4 178/2/4 180/2/4
f 181/2/4 182/2/4 183/2/4
f 183/2/4 182/2/4 184/2/4
f 185/2/4 186/2/4 187/2/4
f 187/2/4 186/2/4 188/2/4
f 193/1/5 190/1/5 189/1/5
f 194/1/5 190/1/5 193/1/5
f 195/1/5 192/1/5 191/1/5
f 196/1/5 192/1/5 195/1/5
f 199/2/5 198/2/5 197/2/5
f 200/2/5 198/2/5 199/2/5
f 201/2/5 198/2/5 200/2/5
f 202/2/5 198/2/5 201/2/5
f 204/2/5 201/2/5 200/2/5
f 205/2/5 201/2/5 204/2/5
f 207/2/5 204/2/5 203/2/5
f 207/2/5 206/2/5 205/2/5
f 207/2/5 205/2/5 204/2/5
f 208/2/5 206/2/5 207/2/5
f 213/2/5 210/2/5 209/2/5
f 214/2/5 210/2/5 213/2/5
f 215/2/5 212/2/5 211/2/5
f 216/2/5 212/2/5 215/2/5
f 219/2/5 218/2/5 217/2/5
f 220/2/5 218/2/5 219/2/5
f 223/2/5 222/2/5 221/2/5
f 224/2/5 222/2/5 223/2/5
f 229/2/5 226/2/5 225/2/5
f 230/2/5 226/2/5 229/2/5
f 231/2/5 228/2/5 227/2/5
f 232/2/5 228/2/5 231/2/5
f 235/2/5 234/2/5 233/2/5
f 236/2/5 234/2/5 235/2/5
f 239/2/5 238/2/5 237/2/5
f 240/2/5 238/2/5 239/2/5
f 243/1/5 242/1/5 241/1/5
f 244/1/5 242/1/5 243/1/5
f 245/1/6 246/1/6 249/1/6
f 249/1/6 246/1/6 250/1/6
f 247/1/6 248/1/6 251/1/6
f 251/1/6 248/1/6 252/1/6
f 253/2/6 254/2/6 255/2/6
f 255/2/6 254/2/6 256/2/6
f 257/2/6 258/2/6 261/2/6
f 261/2/6 258/2/6 262/2/6
f 259/2/6 260/2/6 263/2/6
f 263/2/6 260/2/6 264/2/6
f 265/2/6 266/2/6 269/2/6
f 267/2/6 268/2/6 270/2/6
f 265/2/6 269/2/6 271/2/6
f 269/2/6 270/2/6 271/2/6
f 270/2/6 268/2/6 272/2/6
f 271/2/6 270/2/6 272/2/6
f 273/1/6 274/1/6 275/1/6
f 275/1/6 274/1/6 276/1/6
f 277/2/6 278/2/6 279/2/6
f 279/2/6 278/2/6 280/2/6
